<svg width="60" height="60" viewBox="0 0 60 60" fill="none" xmlns="http://www.w3.org/2000/svg">
<g clip-path="url(#clip0_383_625)">
<path d="M22.043 7.34766C21.8086 7.58204 19.125 13.0547 13.2539 25.3008C5.14451 42.1992 4.6992 43.1016 2.43748 47.0391C-0.234394 51.7031 -0.328144 51.9609 0.328106 52.6172C0.7617 53.0508 1.44139 53.0977 1.91014 52.7344C2.0742 52.6055 2.75389 51.5391 3.42186 50.3789L4.62889 48.2578L4.66404 50.3086C4.68748 52.3359 4.6992 52.3594 5.00389 52.6641L5.30858 52.9688H32.3437H59.3789L59.6953 52.6524L60.0117 52.3477L59.9765 47.6484L59.9414 42.9492L50.9297 25.3125C45.082 13.8399 41.8125 7.5586 41.5898 7.34766C41.1328 6.92579 40.6172 6.93751 39.4336 7.39454C34.7109 9.25782 30.7265 9.26954 24.5976 7.44141C22.9219 6.93751 22.5 6.92579 22.043 7.34766ZM48.5273 26.1328L56.8008 42.3633L48.8906 42.3984C44.5312 42.4102 40.9336 42.3867 40.8867 42.3399C40.7812 42.2227 28.4765 16.957 28.5117 16.9219C28.5234 16.8984 28.9336 16.9688 29.414 17.0625C30.668 17.2969 31.2422 17.2734 31.5234 16.9922C31.8984 16.6172 32.0156 16.207 31.875 15.7149C31.7226 15.1289 31.3594 14.9414 29.6953 14.5899C28.2656 14.2852 27.0703 13.9922 27.0234 13.9219C27 13.8984 26.5898 13.0547 26.0976 12.0352C25.4531 10.6875 25.2539 10.1953 25.4062 10.2422C27.5273 10.8633 29.414 11.1563 31.8164 11.2149C34.6875 11.2969 36.6445 11.0039 39.082 10.1484C39.539 9.98438 39.9844 9.8672 40.0781 9.87891C40.1836 9.89063 43.5 16.2656 48.5273 26.1328ZM21.5625 36.5625C21.4922 36.5977 19.8281 36.9375 17.8359 37.3242C13.9336 38.0625 13.7812 38.0977 13.3945 38.4609L13.125 38.707V44.6719V50.625H10.0781H7.03123V47.3203V44.0274L14.3203 28.8281L21.6211 13.6406L21.6562 25.0664C21.668 32.6719 21.6445 36.5156 21.5625 36.5625ZM31.7461 29.3086L38.9062 44.0274V47.332V50.625H35.7422H32.5781V44.8477V39.0586L32.3203 38.8242C31.8984 38.4375 31.7695 38.4024 27.8086 37.4883L24.0234 36.6211V25.0781L24.0351 13.5352L24.3047 14.0625C24.457 14.3555 27.8086 21.2109 31.7461 29.3086ZM20.25 39.4805C20.2383 39.5391 19.1601 41.332 17.8711 43.4649L15.5273 47.3438L15.4922 43.875C15.4805 41.9531 15.4922 40.3711 15.5273 40.3359C15.5859 40.2774 19.7695 39.4219 20.1328 39.3867C20.2265 39.3867 20.2734 39.4219 20.25 39.4805ZM27.9844 40.0899L30.2344 40.6055V43.9922C30.2344 45.8555 30.2109 47.3555 30.1875 47.332C29.9414 47.0742 25.4531 39.4688 25.5703 39.5156C25.6523 39.5508 26.7422 39.7969 27.9844 40.0899ZM26.0156 45.2461C27.7265 48.0938 29.1445 50.4609 29.1562 50.5195C29.1797 50.5781 26.5312 50.625 22.8515 50.625C19.1719 50.625 16.5234 50.5781 16.5469 50.5195C16.6289 50.2852 22.793 40.0899 22.8515 40.0899C22.8867 40.0899 24.3047 42.4102 26.0156 45.2461ZM57.6562 47.6953V50.625H52.3594L47.0508 50.6133L44.8828 47.8008C43.6875 46.2422 42.7031 44.9297 42.6797 44.8711C42.6562 44.8125 45.7969 44.7656 50.1445 44.7656H57.6562V47.6953ZM42.6328 48.9375C43.289 49.793 43.8281 50.5195 43.8281 50.5547C43.8281 50.5899 43.2539 50.625 42.539 50.625H41.25V48.9024C41.25 47.9531 41.2969 47.2266 41.3437 47.2852C41.4023 47.3555 41.9883 48.0938 42.6328 48.9375Z" fill="#393939"/>
<path d="M34.5586 15.4571C33.9023 16.125 34.2188 17.3203 35.0977 17.4844C36.3516 17.7305 37.125 16.2891 36.2109 15.4336C35.707 14.9766 35.0273 14.9883 34.5586 15.4571Z" fill="#393939"/>
</g>
<defs>
<clipPath id="clip0_383_625">
<rect width="60" height="60" fill="white"/>
</clipPath>
</defs>
</svg>
