<svg width="19" height="20" viewBox="0 0 19 20" fill="none" xmlns="http://www.w3.org/2000/svg">
<path d="M9.47368 11.25C8.88814 11.25 8.31576 11.0667 7.8289 10.7233C7.34204 10.38 6.96259 9.89191 6.73851 9.32089C6.51444 8.74987 6.45581 8.12154 6.57004 7.51534C6.68427 6.90915 6.96624 6.35233 7.38027 5.91529C7.79431 5.47825 8.32183 5.18063 8.89611 5.06005C9.4704 4.93947 10.0657 5.00135 10.6066 5.23788C11.1476 5.4744 11.61 5.87494 11.9353 6.38884C12.2606 6.90275 12.4342 7.50694 12.4342 8.125C12.4333 8.9535 12.1211 9.74778 11.5661 10.3336C11.011 10.9195 10.2586 11.249 9.47368 11.25ZM9.47368 6.25C9.12236 6.25 8.77893 6.35997 8.48681 6.566C8.1947 6.77202 7.96702 7.06486 7.83258 7.40747C7.69813 7.75008 7.66296 8.12708 7.7315 8.4908C7.80004 8.85451 7.96921 9.1886 8.21764 9.45083C8.46606 9.71305 8.78257 9.89163 9.12714 9.96397C9.47171 10.0363 9.82887 9.99919 10.1534 9.85728C10.478 9.71536 10.7555 9.47504 10.9506 9.1667C11.1458 8.85835 11.25 8.49584 11.25 8.125C11.2495 7.62787 11.0622 7.15125 10.7292 6.79972C10.3962 6.4482 9.94465 6.2505 9.47368 6.25Z" fill="#393939"/>
<path d="M9.47367 18.75L4.47868 12.5319C4.40927 12.4385 4.34058 12.3445 4.27262 12.25C3.41939 11.0636 2.95845 9.61452 2.96052 8.125C2.96052 6.30164 3.64672 4.55295 4.86818 3.26364C6.08963 1.97433 7.74628 1.25 9.47367 1.25C11.2011 1.25 12.8577 1.97433 14.0792 3.26364C15.3006 4.55295 15.9868 6.30164 15.9868 8.125C15.9889 9.61384 15.5282 11.0623 14.6753 12.2481L14.6747 12.25C14.6747 12.25 14.4971 12.4963 14.4705 12.5294L9.47367 18.75ZM5.21762 11.4969C5.21881 11.4969 5.35618 11.6894 5.38756 11.7306L9.47367 16.8175L13.5651 11.7237C13.5912 11.6894 13.7297 11.4956 13.7303 11.495C14.4273 10.5257 14.804 9.34189 14.8026 8.125C14.8026 6.63316 14.2412 5.20242 13.2418 4.14752C12.2424 3.09263 10.887 2.5 9.47367 2.5C8.06035 2.5 6.70491 3.09263 5.70554 4.14752C4.70617 5.20242 4.14473 6.63316 4.14473 8.125C4.14349 9.34265 4.51999 10.5271 5.21762 11.4969Z" fill="#393939"/>
</svg>
