<svg width="50" height="46" viewBox="0 0 50 46" fill="none" xmlns="http://www.w3.org/2000/svg">
<path d="M0 0H40C45.5228 0 50 4.47715 50 10V46H22C9.84974 46 0 36.1503 0 24V0Z" fill="white" fill-opacity="0.6"/>
<g clip-path="url(#clip0_383_551)">
<path d="M12.5813 7.13125C12.1375 7.30625 11.6125 7.79375 11.3938 8.2375L11.2188 8.59375L11.2 12.1188L11.1813 15.6438L10.8813 15.9938C9.96877 17.0563 9.51876 17.9125 9.17502 19.1875C8.99377 19.8688 8.95002 21.5188 9.08752 22.2625C9.22501 23 9.45627 23.6688 9.80001 24.3438C10.1 24.9188 10.65 25.7 10.9938 26.025L11.1875 26.2125V28.775C11.1875 31.55 11.225 32.0313 11.5313 32.9563C12.275 35.25 14.2375 37.1 16.5313 37.6813C17.3063 37.8813 17.9813 37.9375 19.45 37.9375H20.8125L21.2063 38.3313C21.8688 39.0063 21.8125 39 25 39C27.5625 39 27.7 38.9938 28.0313 38.8688C28.4813 38.7 28.9875 38.2375 29.2188 37.7688L29.4063 37.4063V35.375V33.3438L29.225 32.9688C28.8875 32.2875 28.4125 31.9438 27.3063 31.5938C25.8688 31.1438 24.1313 31.1438 22.6875 31.6C21.6188 31.9375 21.0938 32.3125 20.7813 32.9688C20.6938 33.1563 20.625 33.3375 20.625 33.375C20.625 33.4313 20.2313 33.4438 19.175 33.425L17.7188 33.4063L17.2938 33.2063C16.4313 32.7938 15.8188 31.9938 15.6875 31.0875C15.5938 30.4313 15.6063 28.375 15.7063 28.375C15.7438 28.375 16.075 28.45 16.4375 28.5375C17.375 28.7688 18.2 28.8063 18.8688 28.6313C19.6063 28.45 20.1125 28.1375 20.8188 27.4563L21.4188 26.875H25H28.5813L29.1813 27.4563C29.8875 28.1375 30.3938 28.45 31.1313 28.6313C31.9313 28.8375 32.575 28.7813 34.3438 28.3563C36.0125 27.95 36.2688 27.8688 37.0375 27.4813C39.0438 26.475 40.4875 24.5313 40.9125 22.2688C41.0688 21.4375 41.0063 19.8625 40.7875 19.075C40.5688 18.3 40.3125 17.6875 39.9438 17.0875C38.875 15.3625 37.2 14.1938 35.125 13.725C34.5313 13.5938 34.4938 13.5938 25.0813 13.5938H15.6313L15.6125 11.0625L15.5938 8.53125L15.4188 8.2C15.2 7.78125 14.8438 7.425 14.425 7.20625C13.9688 6.975 13.0688 6.93125 12.5813 7.13125ZM13.8625 8.25625C14.025 8.3375 14.2 8.49375 14.3 8.64375L14.4688 8.9V11.3625V13.825L14 13.975C13.7375 14.0563 13.25 14.2625 12.9188 14.4375L12.3063 14.75L12.325 11.8563L12.3438 8.96875L12.5125 8.68125C12.6313 8.48125 12.7688 8.35 12.95 8.25625C13.2875 8.0875 13.5125 8.0875 13.8625 8.25625ZM35.2063 14.95C37.4938 15.5813 39.1938 17.3563 39.725 19.6563C39.9 20.425 39.875 21.6625 39.675 22.4375C39.2 24.2125 38.0188 25.6813 36.4063 26.4813C35.875 26.75 35.4063 26.8938 33.875 27.2563C32.3375 27.625 31.8375 27.6625 31.2375 27.4438C30.7625 27.2813 30.4438 27.05 29.8625 26.4563L29.3813 25.9688L28.5563 22.6563L27.7313 19.3438L27.2875 18.9C26.625 18.2375 26.0188 18 25 18C23.9813 18 23.375 18.2375 22.7125 18.9L22.2688 19.3438L21.4438 22.6563L20.6188 25.9688L20.1375 26.4563C19.5688 27.0375 19.275 27.25 18.8125 27.4188C18.05 27.7 17.9063 27.6875 15.5625 27.1188C13.7563 26.675 13.025 26.3125 12.0438 25.3813C11.2125 24.5875 10.6375 23.5938 10.325 22.4375C10.1938 21.9313 10.1688 21.7063 10.1688 20.9375C10.1688 20.1625 10.1938 19.9438 10.3313 19.425C10.8875 17.325 12.5313 15.6125 14.55 15.025C15.4688 14.7563 15.35 14.7625 25.1875 14.7688L34.5938 14.7813L35.2063 14.95ZM25.9688 19.3563C26.1063 19.425 26.3125 19.5813 26.4313 19.7C26.6438 19.9 26.6688 19.9813 27.3813 22.8313L28.1125 25.75H25H21.8875L22.6 22.8875C22.9938 21.3188 23.35 19.9625 23.4 19.875C23.5063 19.6875 24 19.3375 24.275 19.25C24.3813 19.2188 24.75 19.2 25.0938 19.2063C25.5813 19.225 25.775 19.2563 25.9688 19.3563ZM13.5 27.7313C13.7563 27.8375 14.0875 27.9563 14.2375 27.9938L14.5 28.0688V29.65C14.5 31.4563 14.5688 31.8813 14.9813 32.6188C15.2938 33.1813 16.0375 33.9125 16.5625 34.1625C17.3625 34.55 17.5313 34.5813 19.1125 34.6125L20.5625 34.6375V35.6938V36.75H19.175C17.6125 36.75 17.0563 36.6688 16.15 36.3188C14.7938 35.7938 13.5375 34.5938 12.9 33.225C12.4188 32.1813 12.3188 31.4125 12.3125 28.8625V27.1313L12.675 27.3375C12.8688 27.4438 13.2438 27.625 13.5 27.7313ZM26.65 32.625C27.3875 32.825 27.8938 33.075 28.0688 33.3188C28.2188 33.5313 28.2188 33.5438 28.2375 35.25C28.25 36.1938 28.2375 37.0313 28.2188 37.1125C28.1625 37.3438 27.7563 37.7438 27.5125 37.8125C27.2063 37.8938 22.7938 37.8938 22.4875 37.8125C22.2438 37.7438 21.8375 37.3438 21.7813 37.1125C21.7625 37.0313 21.75 36.1938 21.7625 35.25C21.7813 33.5438 21.7813 33.5313 21.9313 33.3188C22.1125 33.0688 22.6375 32.8125 23.35 32.6313C24.1 32.4438 24.0875 32.4438 25.1563 32.4688C25.9438 32.4813 26.2625 32.5188 26.65 32.625Z" fill="black"/>
<path d="M15.2187 15.9188C13.85 16.2125 12.4812 17.2 11.9062 18.3063C11.675 18.7625 12.0437 19.25 12.5437 19.1563C12.7062 19.125 12.8062 19.05 12.9562 18.825C13.275 18.3563 13.9375 17.7313 14.375 17.4875C15.0625 17.1063 15.5312 16.9938 16.6062 16.9563C17.5062 16.9188 17.5625 16.9125 17.7 16.7688C17.9125 16.5438 17.8937 16.1563 17.6687 15.9625C17.5 15.8188 17.4562 15.8125 16.575 15.8188C16.0125 15.8188 15.4875 15.8563 15.2187 15.9188Z" fill="black"/>
<path d="M19.0875 15.9563C18.9562 16.075 18.9187 16.1563 18.9187 16.3688C18.9187 16.7375 19.1187 16.9375 19.4812 16.9375C19.7812 16.9375 19.9687 16.8 20.0375 16.5313C20.175 15.9688 19.5312 15.575 19.0875 15.9563Z" fill="black"/>
<path d="M24.3875 20.3875C24.2562 20.5313 23.875 21.8875 23.875 22.2188C23.875 22.4375 24.1875 22.75 24.4062 22.75C24.7312 22.75 24.925 22.5875 25.025 22.2313C25.4062 20.9063 25.4312 20.6188 25.1875 20.375C25.0063 20.1938 24.5625 20.2063 24.3875 20.3875Z" fill="black"/>
<path d="M23.6125 23.6C23.2563 23.7875 23.2063 24.2125 23.4938 24.5063C23.7813 24.7938 24.225 24.725 24.4125 24.3688C24.5625 24.0688 24.4438 23.7125 24.1563 23.5875C23.8938 23.4813 23.825 23.4813 23.6125 23.6Z" fill="black"/>
<path d="M24.2125 33.5C23.8438 33.65 23.7625 34.15 24.0563 34.4438C24.2375 34.625 24.2438 34.625 25 34.625C25.7563 34.625 25.7625 34.625 25.9438 34.4438C26.175 34.2063 26.1875 33.8938 25.975 33.6438C25.825 33.475 25.8063 33.4688 25.0813 33.4563C24.675 33.4438 24.2813 33.4688 24.2125 33.5Z" fill="black"/>
<path d="M24.0312 35.8438C23.8125 36.0563 23.8187 36.425 24.0375 36.65C24.2 36.8063 24.225 36.8125 24.9937 36.8125C25.5125 36.8063 25.8125 36.7813 25.8812 36.7313C26.1625 36.5188 26.2062 36.075 25.9687 35.8438C25.825 35.6938 25.7875 35.6875 25 35.6875C24.2125 35.6875 24.175 35.6938 24.0312 35.8438Z" fill="black"/>
</g>
<defs>
<clipPath id="clip0_383_551">
<rect width="32" height="32" fill="white" transform="translate(9 7)"/>
</clipPath>
</defs>
</svg>
