<svg width="50" height="46" viewBox="0 0 50 46" fill="none" xmlns="http://www.w3.org/2000/svg">
<path d="M0 0H40C45.5228 0 50 4.47715 50 10V46H22C9.84974 46 0 36.1503 0 24V0Z" fill="white" fill-opacity="0.6"/>
<g clip-path="url(#clip0_383_578)">
<path d="M22.3688 7.09375C21.5438 7.39375 21.1813 7.7625 20.675 8.7875C20.3813 9.3875 20.2813 9.6625 20.2313 10.0313C20.1 10.95 20.4 11.8563 21.0625 12.5C22.325 13.7438 24.4438 13.5438 25.4438 12.0875C25.725 11.675 26.1875 10.6063 26.2563 10.1875C26.3938 9.425 26.1 8.54375 25.5188 7.99375C25.1625 7.65 24.8313 7.45 24.175 7.19375C23.7625 7.025 23.6188 7 23.1438 7.00625C22.8438 7.00625 22.4938 7.04375 22.3688 7.09375ZM24.0875 8.26875C24.9313 8.66875 25.2688 9.1125 25.2688 9.825C25.2688 10.125 25.2188 10.275 24.9188 10.8938C24.525 11.7063 24.2625 11.975 23.7063 12.1875C22.6563 12.5813 21.5875 12 21.275 10.875C21.1313 10.3813 21.1938 10.0625 21.5875 9.24375C22.0188 8.34375 22.4438 8.00625 23.15 8C23.4563 8 23.6125 8.04375 24.0875 8.26875Z" fill="black"/>
<path d="M15.1562 9.81251C14.3625 9.925 13.5 10.3438 12.9 10.9063C12.6125 11.175 12.5625 11.2563 12.5625 11.45C12.5625 11.9813 13.0437 12.1375 13.4812 11.7438C14.5625 10.7688 15.8687 10.5188 17.0375 11.0563C17.6187 11.325 17.9375 11.8625 17.8312 12.3813C17.775 12.675 14.4687 19.4875 14.2937 19.675C13.7312 20.2813 12.8375 20.1438 12.025 19.3375C11.4062 18.7188 11.1 17.9813 11.1 17.0938C11.0937 16.4 11.1562 16.225 11.8812 14.7125C12.1875 14.075 12.4375 13.5 12.4375 13.4313C12.4375 13.3625 12.35 13.2188 12.25 13.1125C12.0875 12.9563 12.025 12.9313 11.8562 12.9625C11.75 12.9875 11.625 13.0375 11.5812 13.0813C11.4437 13.2188 10.375 15.4563 10.2312 15.9063C10.05 16.4813 10.0375 17.6438 10.2125 18.2188C10.6687 19.7438 11.9937 20.9875 13.2187 21.05L13.6625 21.075L13.475 21.6125C13.3062 22.1 13.2875 22.2375 13.2937 22.9063C13.2937 23.625 13.3062 23.7 13.6125 24.7188C13.9562 25.85 14.05 26 14.3875 26C14.625 26 14.875 25.75 14.875 25.5188C14.875 25.425 14.7437 24.9188 14.5875 24.4063C14.3312 23.5875 14.2937 23.3938 14.2937 22.9063C14.2937 21.9375 14.0937 21.9375 16.4062 22.9125L18.4125 23.7625L18.9062 25.925C19.4562 28.3188 19.5 28.7 19.2687 29.2813C19.175 29.525 16.7625 33.8 16.3375 34.475C16.2562 34.6125 16.2375 34.6 14.925 33.925C14.1937 33.55 13.5875 33.2313 13.5812 33.225C13.575 33.2188 13.975 32.4938 14.4812 31.625C15.7125 29.4688 15.7625 29.3563 15.7625 28.7875C15.7625 28.475 15.7125 28.1625 15.6 27.7875C15.4437 27.2875 15.4125 27.2313 15.2187 27.15C14.9562 27.0438 14.7437 27.1125 14.5875 27.35C14.4812 27.5063 14.4812 27.5375 14.6187 28.075C14.7125 28.4188 14.7562 28.725 14.7375 28.8938C14.7125 29.1063 14.3 29.8375 12.8062 32.3438L10.9062 35.525V35.9375C10.9125 36.4 11.05 36.725 11.3875 37.0438C11.5062 37.1563 12.3562 37.6188 13.3625 38.1188C15.0437 38.9563 15.15 39 15.5062 39C16.0812 39 16.5062 38.7313 16.7125 38.25C16.7687 38.1063 16.8312 37.575 16.8812 36.75L16.9562 35.4688L18.5187 32.75C19.3812 31.2563 20.1562 29.8375 20.2375 29.5938C20.3687 29.2313 20.4 29.0375 20.4 28.4563C20.4062 28.0688 20.4312 27.75 20.4562 27.75C20.4875 27.75 21.0562 27.875 21.7312 28.0313C22.5312 28.2125 23.05 28.3688 23.225 28.4688C23.5437 28.6563 23.425 28.4625 25.4062 32.0313C26.2312 33.5063 26.9875 34.8 27.0875 34.9L27.2812 35.075L25.6375 36.6813C24.0562 38.2188 23.9937 38.2875 24 38.5125C24 38.8313 24.175 39 24.4875 39C24.7187 39 24.8062 38.925 26.6312 37.1375C27.6812 36.1063 28.5937 35.2375 28.6562 35.2063C28.725 35.1688 29.3625 34.9938 30.075 34.8188C31.475 34.4813 31.7187 34.3813 32.075 34.0375C32.525 33.6 32.75 33.025 32.75 32.2938C32.75 32.1125 32.7812 31.8563 32.8187 31.725C32.9375 31.2938 33.125 31.1813 34.3437 30.8125C35.0312 30.6063 35.5562 30.4063 35.7312 30.2938C36.1062 30.0438 36.4 29.625 36.5625 29.1063C36.6375 28.875 36.7562 28.6125 36.8312 28.5313C36.9062 28.45 37.6 28.0375 38.375 27.625C39.15 27.2125 39.8187 26.825 39.8625 26.7688C39.975 26.6125 39.9562 26.35 39.8062 26.1625C39.575 25.8688 39.3812 25.925 37.8875 26.725C37.1437 27.125 36.4375 27.525 36.325 27.6063C36.0187 27.8313 35.7625 28.225 35.65 28.6188C35.5187 29.075 35.3687 29.3188 35.1187 29.4625C34.9312 29.5688 33.5562 30.0188 33.5187 29.9813C33.4875 29.95 28.675 19.7875 28.575 19.55C28.4812 19.3188 28.4812 19.3125 28.7 19.075C29.05 18.6875 29.2062 18.1938 29.175 17.5938C29.1375 16.9813 28.9687 16.5875 28.5625 16.1875C28.1937 15.8125 27.7625 15.6125 27.2437 15.575C26.6375 15.5313 26.3375 15.6313 25.125 16.275L24.0312 16.8563L23.9875 16.45C23.9312 15.8938 23.65 15.3375 23.2312 14.9625C22.9687 14.725 22.5 14.4688 20.8812 13.6875L18.8562 12.7063L18.85 12.1813C18.8375 11.5563 18.6625 11.1125 18.25 10.6625C17.6562 10.0188 16.3062 9.65001 15.1562 9.81251ZM19.8125 14.3125C19.9437 14.3813 20.1062 14.5125 20.175 14.6063C20.3062 14.8 21.4312 16.9125 21.4562 17.0125C21.4687 17.0625 21.1125 17.2813 19.8625 17.9813L19.5125 18.1813L18.8937 17.0125C18.125 15.55 18.0812 15.4375 18.1812 15.0688C18.2812 14.6938 18.45 14.475 18.7625 14.3188C19.1 14.1563 19.4937 14.15 19.8125 14.3125ZM22.1125 15.4313C22.3062 15.5313 22.5312 15.6813 22.6062 15.7563C22.95 16.125 23.0875 16.775 22.9187 17.2313L22.8437 17.4313L22.275 16.3375C21.9625 15.7375 21.7125 15.25 21.7312 15.25C21.7437 15.25 21.9125 15.3313 22.1125 15.4313ZM18.4687 18.3875C19.8062 20.9375 20.0125 21.275 20.4062 21.5688C20.5562 21.6875 20.6875 21.8 20.6875 21.8188C20.6875 21.85 20.1312 23.0688 20.1 23.1125C20.0875 23.1188 18.9062 22.675 17.4625 22.1313C15.675 21.45 14.85 21.1063 14.8625 21.05C14.8875 20.9188 17.2125 16.125 17.25 16.125C17.2687 16.125 17.8187 17.1438 18.4687 18.3875ZM27.6812 16.7688C27.9625 16.9563 28.1875 17.3688 28.1875 17.7125C28.1875 17.975 28.0187 18.3438 27.8 18.5375C27.5687 18.75 23.0625 21.1063 22.7312 21.1938C22.1062 21.35 21.375 21.1188 20.9125 20.625C20.7562 20.4625 20.4937 20.05 20.3187 19.7L20.0062 19.075L20.9812 18.5313L21.9625 17.9813L22.0875 18.1375C22.1625 18.225 22.3125 18.3438 22.4312 18.4063C22.825 18.6063 23.0875 18.5188 24.5937 17.7188C26.7125 16.5875 26.7937 16.55 27.1375 16.5813C27.3187 16.5938 27.5312 16.6688 27.6812 16.7688ZM30.0812 25.125L32.5687 30.375L32.375 30.5375C32.0562 30.8063 31.8687 31.2063 31.7875 31.7625L31.7125 32.2688L30.9625 31.275C30.55 30.725 29.4812 29.1813 28.5812 27.8438C27.6875 26.5 26.8375 25.2875 26.6937 25.1375C26.3312 24.7688 25.7375 24.3938 25.2875 24.2563C25.075 24.1938 24.0625 23.9625 23.0312 23.75C22 23.5375 21.15 23.35 21.1375 23.3438C21.125 23.3313 21.2375 23.0813 21.3875 22.7813L21.6625 22.2438L22.3125 22.225C22.7937 22.2125 23.0625 22.175 23.3125 22.0813C23.5 22.0125 24.5312 21.4875 25.5937 20.9188C26.6625 20.35 27.5437 19.8813 27.5625 19.8813C27.5812 19.875 28.7125 22.2375 30.0812 25.125ZM22.2687 24.625C25.15 25.2313 25.3437 25.2938 25.8562 25.7688C26.225 26.1063 29.1625 30.4938 29.05 30.5313C29.0062 30.5438 28.3687 30.7 27.6312 30.8813C26.3375 31.1938 26.2875 31.2 26.2062 31.0875C26.1562 31.0188 25.7437 30.35 25.2937 29.5938C24.4375 28.175 24.0937 27.7375 23.625 27.5C23.4812 27.425 22.6437 27.2 21.7687 27C20.8875 26.7938 20.1562 26.6125 20.1312 26.5938C20.0812 26.5438 19.5125 24.0625 19.55 24.0625C19.5687 24.0625 20.7937 24.3188 22.2687 24.625ZM30.4437 32.2813C31.0937 33.1313 31.2062 33.3563 31.0437 33.4875C30.9562 33.5625 28.2187 34.25 28.0125 34.25C27.825 34.25 27.6625 34.0125 27.2 33.05L26.7625 32.1313L28.1437 31.7938C28.9062 31.6 29.5875 31.4438 29.6625 31.4438C29.7562 31.4375 29.9625 31.6563 30.4437 32.2813ZM14.4937 34.8563C15.2687 35.2563 15.9125 35.5875 15.925 35.5938C15.9687 35.6313 15.7937 37.7875 15.7437 37.8875C15.7125 37.95 15.625 38 15.5625 38C15.4937 38 14.6812 37.6188 13.75 37.1563C12.075 36.3188 11.8062 36.1375 11.9 35.9063C11.95 35.7688 13.0125 34.125 13.0437 34.125C13.0625 34.125 13.7125 34.45 14.4937 34.8563Z" fill="black"/>
</g>
<defs>
<clipPath id="clip0_383_578">
<rect width="32" height="32" fill="white" transform="translate(9 7)"/>
</clipPath>
</defs>
</svg>
