<svg width="60" height="60" viewBox="0 0 60 60" fill="none" xmlns="http://www.w3.org/2000/svg">
<g clip-path="url(#clip0_383_633)">
<path d="M25.0665 0.175774C23.5196 0.738274 22.8399 1.42968 21.8907 3.35155C21.3399 4.47656 21.1524 4.99218 21.0587 5.68359C20.8126 7.40624 21.3751 9.10546 22.6172 10.3125C24.9844 12.6445 28.9571 12.2695 30.8321 9.53905C31.3594 8.76562 32.2266 6.76171 32.3555 5.97655C32.6133 4.54687 32.0626 2.89452 30.9727 1.86327C30.3047 1.21874 29.6837 0.843742 28.4532 0.363274C27.6797 0.0468674 27.4102 -7.62939e-06 26.5196 0.0117111C25.9571 0.0117111 25.3008 0.0820236 25.0665 0.175774ZM28.2891 2.3789C29.8712 3.1289 30.504 3.96093 30.504 5.29687C30.504 5.85937 30.4102 6.14062 29.8477 7.30077C29.1094 8.82421 28.6172 9.32812 27.5743 9.72655C25.6055 10.4648 23.6016 9.37499 23.0157 7.26562C22.7462 6.33984 22.8633 5.74218 23.6016 4.20702C24.4102 2.51952 25.2071 1.88671 26.5313 1.87499C27.1055 1.87499 27.3985 1.95702 28.2891 2.3789Z" fill="#393939"/>
<path d="M11.543 5.27344C10.0547 5.48438 8.43749 6.26954 7.31249 7.32422C6.77343 7.82813 6.67968 7.98047 6.67968 8.34375C6.67968 9.33985 7.58202 9.63282 8.40234 8.89454C10.4297 7.06641 12.8789 6.59766 15.0703 7.60547C16.1601 8.10938 16.7578 9.11719 16.5586 10.0898C16.4531 10.6406 10.2539 23.4141 9.92577 23.7656C8.87109 24.9023 7.19531 24.6445 5.67187 23.1328C4.51171 21.9727 3.93749 20.5898 3.93749 18.9258C3.92577 17.625 4.04296 17.2969 5.40234 14.4609C5.97656 13.2656 6.44531 12.1875 6.44531 12.0586C6.44531 11.9297 6.28124 11.6602 6.09374 11.4609C5.78906 11.168 5.67187 11.1211 5.35546 11.1797C5.15624 11.2266 4.92187 11.3203 4.83984 11.4023C4.58202 11.6602 2.57812 15.8555 2.30859 16.6992C1.96874 17.7773 1.94531 19.957 2.27343 21.0352C3.1289 23.8945 5.61327 26.2266 7.91015 26.3438L8.74218 26.3906L8.39062 27.3984C8.07421 28.3125 8.03906 28.5703 8.05077 29.8242C8.05077 31.1719 8.07421 31.3125 8.64843 33.2227C9.29296 35.3438 9.46874 35.625 10.1016 35.625C10.5469 35.625 11.0156 35.1563 11.0156 34.7227C11.0156 34.5469 10.7695 33.5977 10.4766 32.6367C9.99609 31.1016 9.92577 30.7383 9.92577 29.8242C9.92577 28.0078 9.55077 28.0078 13.8867 29.8359L17.6484 31.4297L18.5742 35.4844C19.6055 39.9727 19.6875 40.6875 19.2539 41.7773C19.0781 42.2344 14.5547 50.25 13.7578 51.5156C13.6055 51.7734 13.5703 51.75 11.1094 50.4844C9.73827 49.7813 8.60155 49.1836 8.58984 49.1719C8.57812 49.1602 9.32812 47.8008 10.2773 46.1719C12.5859 42.1289 12.6797 41.918 12.6797 40.8516C12.6797 40.2656 12.5859 39.6797 12.375 38.9766C12.082 38.0391 12.0234 37.9336 11.6601 37.7813C11.168 37.582 10.7695 37.7109 10.4766 38.1563C10.2773 38.4492 10.2773 38.5078 10.5351 39.5156C10.7109 40.1602 10.793 40.7344 10.7578 41.0508C10.7109 41.4492 9.93749 42.8203 7.13671 47.5195L3.57421 53.4844V54.2578C3.58593 55.125 3.84374 55.7344 4.47656 56.332C4.69921 56.543 6.29296 57.4102 8.17968 58.3477C11.332 59.918 11.5312 60 12.1992 60C13.2773 60 14.0742 59.4961 14.4609 58.5938C14.5664 58.3242 14.6836 57.3281 14.7773 55.7813L14.918 53.3789L17.8476 48.2813C19.4648 45.4805 20.918 42.8203 21.0703 42.3633C21.3164 41.6836 21.375 41.3203 21.375 40.2305C21.3867 39.5039 21.4336 38.9063 21.4805 38.9063C21.5391 38.9063 22.6055 39.1406 23.8711 39.4336C25.3711 39.7734 26.3437 40.0664 26.6719 40.2539C27.2695 40.6055 27.0469 40.2422 30.7617 46.9336C32.3086 49.6992 33.7266 52.125 33.9141 52.3125L34.2773 52.6406L31.1953 55.6523C28.2305 58.5352 28.1133 58.6641 28.125 59.0859C28.125 59.6836 28.4531 60 29.0391 60C29.4726 60 29.6367 59.8594 33.0586 56.5078C35.0273 54.5742 36.7383 52.9453 36.8555 52.8867C36.9844 52.8164 38.1797 52.4883 39.5156 52.1602C42.1406 51.5273 42.5976 51.3398 43.2656 50.6953C44.1094 49.875 44.5312 48.7969 44.5312 47.4258C44.5312 47.0859 44.5898 46.6055 44.6601 46.3594C44.8828 45.5508 45.2344 45.3398 47.5195 44.6484C48.8086 44.2617 49.793 43.8867 50.1211 43.6758C50.8242 43.207 51.375 42.4219 51.6797 41.4492C51.8203 41.0156 52.043 40.5234 52.1836 40.3711C52.3242 40.2188 53.625 39.4453 55.0781 38.6719C56.5312 37.8984 57.7851 37.1719 57.8672 37.0664C58.0781 36.7734 58.043 36.2813 57.7617 35.9297C57.3281 35.3789 56.9648 35.4844 54.1641 36.9844C52.7695 37.7344 51.4453 38.4844 51.2344 38.6367C50.6601 39.0586 50.1797 39.7969 49.9687 40.5352C49.7226 41.3906 49.4414 41.8477 48.9726 42.1172C48.6211 42.3164 46.043 43.1602 45.9726 43.0898C45.9141 43.0313 36.8906 23.9766 36.7031 23.5313C36.5273 23.0977 36.5273 23.0859 36.9375 22.6406C37.5937 21.9141 37.8867 20.9883 37.8281 19.8633C37.7578 18.7148 37.4414 17.9766 36.6797 17.2266C35.9883 16.5234 35.1797 16.1484 34.207 16.0781C33.0703 15.9961 32.5078 16.1836 30.2344 17.3906L28.1836 18.4805L28.1016 17.7188C27.9961 16.6758 27.4687 15.6328 26.6836 14.9297C26.1914 14.4844 25.3125 14.0039 22.2773 12.5391L18.4805 10.6992L18.4687 9.71485C18.4453 8.54297 18.1172 7.71094 17.3437 6.86719C16.2305 5.66016 13.6992 4.96875 11.543 5.27344ZM20.2734 13.7109C20.5195 13.8398 20.8242 14.0859 20.9531 14.2617C21.1992 14.625 23.3086 18.5859 23.3555 18.7734C23.3789 18.8672 22.7109 19.2773 20.3672 20.5898L19.7109 20.9648L18.5508 18.7734C17.1094 16.0313 17.0273 15.8203 17.2148 15.1289C17.4023 14.4258 17.7187 14.0156 18.3047 13.7227C18.9375 13.418 19.6758 13.4063 20.2734 13.7109ZM24.5859 15.8086C24.9492 15.9961 25.3711 16.2773 25.5117 16.418C26.1562 17.1094 26.4141 18.3281 26.0976 19.1836L25.957 19.5586L24.8906 17.5078C24.3047 16.3828 23.8359 15.4688 23.8711 15.4688C23.8945 15.4688 24.2109 15.6211 24.5859 15.8086ZM17.7539 21.3516C20.2617 26.1328 20.6484 26.7656 21.3867 27.3164C21.668 27.5391 21.9141 27.75 21.9141 27.7852C21.9141 27.8438 20.8711 30.1289 20.8125 30.2109C20.7891 30.2227 18.5742 29.3906 15.8672 28.3711C12.5156 27.0938 10.9687 26.4492 10.9922 26.3438C11.0391 26.0977 15.3984 17.1094 15.4687 17.1094C15.5039 17.1094 16.5351 19.0195 17.7539 21.3516ZM35.0273 18.3164C35.5547 18.668 35.9766 19.4414 35.9766 20.0859C35.9766 20.5781 35.6601 21.2695 35.25 21.6328C34.8164 22.0313 26.3672 26.4492 25.7461 26.6133C24.5742 26.9063 23.2031 26.4727 22.3359 25.5469C22.043 25.2422 21.5508 24.4688 21.2226 23.8125L20.6367 22.6406L22.4648 21.6211L24.3047 20.5898L24.5391 20.8828C24.6797 21.0469 24.9609 21.2695 25.1836 21.3867C25.9219 21.7617 26.4141 21.5977 29.2383 20.0977C33.2109 17.9766 33.3633 17.9063 34.0078 17.9648C34.3476 17.9883 34.7461 18.1289 35.0273 18.3164ZM39.5273 33.9844L44.1914 43.8281L43.8281 44.1328C43.2305 44.6367 42.8789 45.3867 42.7266 46.4297L42.5859 47.3789L41.1797 45.5156C40.4062 44.4844 38.4023 41.5898 36.7148 39.082C35.0391 36.5625 33.4453 34.2891 33.1758 34.0078C32.4961 33.3164 31.3828 32.6133 30.5391 32.3555C30.1406 32.2383 28.2422 31.8047 26.3086 31.4063C24.375 31.0078 22.7812 30.6563 22.7578 30.6445C22.7344 30.6211 22.9453 30.1523 23.2266 29.5898L23.7422 28.582L24.9609 28.5469C25.8633 28.5234 26.3672 28.4531 26.8359 28.2773C27.1875 28.1484 29.1211 27.1641 31.1133 26.0977C33.1172 25.0313 34.7695 24.1523 34.8047 24.1523C34.8398 24.1406 36.9609 28.5703 39.5273 33.9844ZM24.8789 33.0469C30.2812 34.1836 30.6445 34.3008 31.6055 35.1914C32.2969 35.8242 37.8047 44.0508 37.5937 44.1211C37.5117 44.1445 36.3164 44.4375 34.9336 44.7773C32.5078 45.3633 32.4141 45.375 32.2617 45.1641C32.168 45.0352 31.3945 43.7813 30.5508 42.3633C28.9453 39.7031 28.3008 38.8828 27.4219 38.4375C27.1523 38.2969 25.582 37.875 23.9414 37.5C22.2891 37.1133 20.918 36.7734 20.8711 36.7383C20.7773 36.6445 19.7109 31.9922 19.7812 31.9922C19.8164 31.9922 22.1133 32.4727 24.8789 33.0469ZM40.207 47.4023C41.4258 48.9961 41.6367 49.418 41.332 49.6641C41.168 49.8047 36.0351 51.0938 35.6484 51.0938C35.2969 51.0938 34.9922 50.6484 34.125 48.8438L33.3047 47.1211L35.8945 46.4883C37.3242 46.125 38.6016 45.832 38.7422 45.832C38.918 45.8203 39.3047 46.2305 40.207 47.4023ZM10.3008 52.2305C11.7539 52.9805 12.9609 53.6016 12.9844 53.6133C13.0664 53.6836 12.7383 57.7266 12.6445 57.9141C12.5859 58.0313 12.4219 58.125 12.3047 58.125C12.1758 58.125 10.6523 57.4102 8.90624 56.543C5.76562 54.9727 5.26171 54.6328 5.43749 54.1992C5.53124 53.9414 7.52343 50.8594 7.58202 50.8594C7.61718 50.8594 8.83593 51.4688 10.3008 52.2305Z" fill="#393939"/>
</g>
<defs>
<clipPath id="clip0_383_633">
<rect width="60" height="60" fill="white"/>
</clipPath>
</defs>
</svg>
