<svg width="20" height="20" viewBox="0 0 20 20" fill="none" xmlns="http://www.w3.org/2000/svg">
<path fill-rule="evenodd" clip-rule="evenodd" d="M4.77 1.08194C8.24603 0.696644 11.754 0.696644 15.23 1.08194C17.129 1.29394 18.66 2.78894 18.883 4.69494C19.2952 8.2196 19.2952 11.7803 18.883 15.3049C18.66 17.2109 17.129 18.7059 15.231 18.9189C11.7547 19.3043 8.24636 19.3043 4.77 18.9189C2.871 18.7059 1.34 17.2109 1.117 15.3059C0.704732 11.781 0.704732 8.21993 1.117 4.69494C1.34 2.78894 2.871 1.29394 4.77 1.08194ZM15 3.99994C14.7348 3.99994 14.4804 4.1053 14.2929 4.29284C14.1054 4.48037 14 4.73473 14 4.99994C14 5.26516 14.1054 5.51951 14.2929 5.70705C14.4804 5.89459 14.7348 5.99994 15 5.99994C15.2652 5.99994 15.5196 5.89459 15.7071 5.70705C15.8946 5.51951 16 5.26516 16 4.99994C16 4.73473 15.8946 4.48037 15.7071 4.29284C15.5196 4.1053 15.2652 3.99994 15 3.99994ZM5.25 9.99994C5.25 8.74017 5.75045 7.53198 6.64125 6.64119C7.53204 5.75039 8.74023 5.24994 10 5.24994C11.2598 5.24994 12.468 5.75039 13.3588 6.64119C14.2496 7.53198 14.75 8.74017 14.75 9.99994C14.75 11.2597 14.2496 12.4679 13.3588 13.3587C12.468 14.2495 11.2598 14.7499 10 14.7499C8.74023 14.7499 7.53204 14.2495 6.64125 13.3587C5.75045 12.4679 5.25 11.2597 5.25 9.99994Z" fill="white"/>
</svg>
