<svg width="20" height="20" viewBox="0 0 20 20" fill="none" xmlns="http://www.w3.org/2000/svg">
<path d="M10.2105 1.875C8.6881 1.875 7.19989 2.35152 5.93407 3.24431C4.66824 4.1371 3.68165 5.40605 3.09905 6.8907C2.51646 8.37535 2.36402 10.009 2.66103 11.5851C2.95803 13.1612 3.69114 14.6089 4.76763 15.7452C5.84413 16.8815 7.21567 17.6554 8.70881 17.9689C10.202 18.2824 11.7496 18.1215 13.1561 17.5065C14.5627 16.8916 15.7648 15.8502 16.6106 14.514C17.4564 13.1779 17.9079 11.607 17.9079 10C17.9057 7.84581 17.094 5.78051 15.651 4.25727C14.2079 2.73403 12.2513 1.87727 10.2105 1.875ZM10.2105 16.875C8.92231 16.875 7.66306 16.4718 6.59198 15.7164C5.52089 14.9609 4.68609 13.8872 4.19312 12.6309C3.70016 11.3747 3.57117 9.99237 3.82248 8.65875C4.0738 7.32513 4.69411 6.10013 5.605 5.13864C6.51588 4.17716 7.67641 3.52237 8.93984 3.2571C10.2033 2.99183 11.5128 3.12798 12.703 3.64833C13.8931 4.16868 14.9103 5.04987 15.626 6.18045C16.3417 7.31104 16.7237 8.64025 16.7237 10C16.7217 11.8227 16.0349 13.5702 14.8138 14.8591C13.5928 16.1479 11.9373 16.8729 10.2105 16.875ZM14.9473 10C14.9473 10.1658 14.885 10.3247 14.7739 10.4419C14.6629 10.5592 14.5123 10.625 14.3552 10.625H10.2105C10.0535 10.625 9.90285 10.5592 9.79181 10.4419C9.68077 10.3247 9.61839 10.1658 9.61839 10V5.625C9.61839 5.45924 9.68077 5.30027 9.79181 5.18306C9.90285 5.06585 10.0535 5 10.2105 5C10.3675 5 10.5181 5.06585 10.6292 5.18306C10.7402 5.30027 10.8026 5.45924 10.8026 5.625V9.375H14.3552C14.5123 9.375 14.6629 9.44085 14.7739 9.55806C14.885 9.67527 14.9473 9.83424 14.9473 10Z" fill="#393939"/>
</svg>
