<svg width="60" height="60" viewBox="0 0 60 60" fill="none" xmlns="http://www.w3.org/2000/svg">
<g clip-path="url(#clip0_383_601)">
<path d="M32.2617 11.7422C32.1211 11.8125 31.9453 12.0234 31.8633 12.2109C31.7344 12.5273 31.875 13.0547 33.7383 18.7617L35.7539 24.9726L35.7188 26.0156L35.6836 27.0703L34.0781 25.7812C33.1875 25.0664 32.4609 24.4336 32.4609 24.375C32.4609 24.3164 32.6719 23.9414 32.9297 23.5429C33.5625 22.5586 33.5508 22.0664 32.9063 21.7265C32.168 21.3515 32.0156 21.4804 30.2344 24.1172C28.4883 26.6836 28.3594 26.9882 28.8164 27.5507C28.9688 27.7382 29.1563 27.8203 29.4492 27.8203C29.9531 27.8203 30.1289 27.6797 30.7383 26.7773C30.9961 26.3906 31.2305 26.0507 31.2422 26.0273C31.2656 26.0039 32.2852 26.8007 33.5156 27.7851L35.7539 29.5898L35.7188 31.6523C35.6836 33.6562 35.6719 33.7265 35.3672 34.1836C34.8984 34.8867 34.4766 35.039 32.9414 35.039H31.6406V34.1718C31.6406 32.6015 31.0547 31.289 29.8359 30.1406C28.7461 29.1093 27.6563 28.7109 25.8867 28.7109H24.7383L24.7031 25.3359C24.6563 21.5039 24.6211 21.3164 23.7188 20.5312C22.5469 19.4882 20.9531 19.5468 19.8516 20.6718C19.1016 21.4336 18.9844 21.8789 18.9844 23.8359V25.3125H18.2813H17.5781V19.6406C17.5781 13.664 17.5664 13.5351 17.0273 12.8086C16.1719 11.6836 14.1328 11.6132 13.1719 12.6797C12.6563 13.2422 12.5156 13.6875 12.457 15.0937L12.3867 16.4531L8.57813 20.8476L4.76953 25.2539L3.85547 25.3125C2.35547 25.4179 2.46094 25.0781 2.46094 29.9648C2.46094 33.1757 2.42578 34.1132 2.30859 34.1484C2.23828 34.1836 2.02734 34.2304 1.86328 34.2656C1.39453 34.3711 0.808594 34.8164 0.410156 35.3672C0.0703125 35.8711 0.0585938 35.9062 0.0234375 37.5117C-0.0117188 39.0937 -0.0117188 39.1523 0.304688 39.7265C0.925781 40.875 1.58203 41.1562 3.44531 41.1093L4.80469 41.0742V41.3554C4.80469 41.8593 5.16797 43.0546 5.57813 43.875C7.73438 48.1757 13.0078 49.664 17.1563 47.1445C18.1172 46.5586 19.1953 45.457 19.8047 44.4375C20.3203 43.5468 20.8594 42.0586 20.8594 41.4843V41.1328H30H39.1406V41.4843C39.1406 42.0586 39.6797 43.5468 40.1953 44.4375C40.8047 45.457 41.8828 46.5586 42.8438 47.1445C47.0039 49.664 52.2656 48.1757 54.4219 43.875C54.832 43.0546 55.1953 41.8593 55.1953 41.3554V41.0742L56.625 41.1093C58.043 41.1328 58.0781 41.1328 58.6758 40.7812C59.1328 40.5234 59.3906 40.2656 59.6484 39.8086C59.9883 39.2226 60 39.1523 60 37.6992C60 36.6914 59.9531 36.082 59.8359 35.8125C59.6016 35.25 59.0156 34.6406 58.4766 34.3945L58.0078 34.1836V31.9336C58.0078 29.4726 57.9258 29.039 57.3398 28.3007C57.1641 28.0781 56.8008 27.7734 56.5313 27.6328L56.0391 27.375L55.9922 26.4726C55.9336 25.3945 55.5586 24.6562 54.8203 24.164C54.3516 23.8593 54.2695 23.8476 52.5 23.8125L50.6602 23.7773L50.3906 24.1054C50.1094 24.4687 50.1328 24.9609 50.4727 25.3359C50.6367 25.5117 50.8477 25.5468 51.9141 25.5468C53.7773 25.5468 54.1406 25.7461 54.1406 26.7773V27.1875L47.6836 27.2109L41.2266 27.2461L40.9453 27.5742C40.6055 27.9726 40.582 28.3476 40.9102 28.7461L41.1445 29.0625L48.293 29.0859L55.4531 29.1211L55.793 29.5078L56.1328 29.8828V31.9804V34.0664L55.418 34.2656C54.8789 34.4062 54.5977 34.582 54.2227 34.9687L53.7188 35.4726L53.3789 35.0156C52.9102 34.3828 51.5859 33.3632 50.707 32.9414C46.9219 31.1484 42.3047 32.5078 40.2188 36.0468C39.6914 36.9375 39.1406 38.4492 39.1406 39.0117V39.375H30H20.8594V39.0351C20.8594 38.4843 20.3203 36.914 19.875 36.1875C18.7266 34.2773 17.7656 33.7031 17.1094 34.5468C16.7461 34.9922 16.8281 35.2851 17.5195 36.164C18.3398 37.1836 18.7266 37.9921 18.9609 39.1757C19.6055 42.4687 17.2148 45.832 13.8047 46.4062C10.5 46.9804 7.19531 44.5312 6.66797 41.1093C6.04688 37.1601 9.72656 33.4804 13.6875 34.0781C14.9297 34.2656 15.1992 34.2539 15.4688 33.9843C15.7031 33.75 15.7734 33.2461 15.6328 32.8711C15.3516 32.1679 12.6914 31.9101 10.7227 32.414C9.24609 32.789 7.40625 33.9609 6.62109 35.0156L6.28125 35.4726L5.78906 34.9687C5.49609 34.6757 5.10938 34.4062 4.81641 34.3242L4.33594 34.1836V30.6796V27.1875H11.7188H19.0898L19.1602 27.5625C19.1953 27.7734 19.4063 29.3437 19.6289 31.0546C20.0977 34.6172 20.3086 35.25 21.2695 36.0351C22.3477 36.9257 22.2656 36.914 28.7695 36.914C34.207 36.914 34.6055 36.9023 35.1563 36.6914C36.0703 36.3398 36.7266 35.7422 37.1719 34.8281L37.5586 34.0429L37.5938 29.2968L37.6172 24.5507L35.8828 19.2187C34.9219 16.289 34.1602 13.8632 34.1719 13.8398C34.1953 13.8164 34.3945 13.9218 34.6172 14.0507C35.5313 14.625 35.8477 15.164 38.2383 20.2851C39.5156 23.0156 40.6523 25.3242 40.7578 25.3945C40.8984 25.5117 41.8359 25.5468 44.4961 25.5468C47.8945 25.5468 48.0586 25.5351 48.2813 25.3125C48.5625 25.0312 48.5859 24.4101 48.3281 24.0468C48.1523 23.789 48.1172 23.789 45.0703 23.789H41.9883L40.1953 19.9453C37.5938 14.3672 37.3828 13.9687 36.5625 13.1953C35.332 12.0234 33.1875 11.2968 32.2617 11.7422ZM15.2695 13.8398C15.4102 13.9218 15.5625 14.039 15.6094 14.1093C15.6563 14.1797 15.7031 16.7343 15.7031 19.7695V25.3125H15H14.2852L14.3203 19.7343L14.3555 14.1562L14.6367 13.9336C14.9531 13.6757 14.9414 13.6757 15.2695 13.8398ZM12.3867 25.2773C12.3633 25.3007 11.2031 25.3007 9.82031 25.289L7.30078 25.2539L9.83203 22.3242L12.3633 19.3945L12.3984 22.3125C12.4102 23.9179 12.4102 25.2539 12.3867 25.2773ZM22.4648 21.9609L22.793 22.2422L22.8516 26.1679C22.8984 29.0625 22.9453 30.1289 23.0625 30.2578C23.168 30.3984 23.6016 30.4453 24.9961 30.5039C27.1055 30.5742 27.6328 30.7265 28.4766 31.4882C29.3086 32.2382 29.6719 33 29.7422 34.125L29.8008 35.039H26.543C22.8867 35.039 22.7109 35.0039 22.1836 34.207C21.9141 33.7968 21.832 33.3515 21.375 29.9765C20.9531 26.8359 20.8711 25.8632 20.8594 24.2812V22.3593L21.1992 22.0195C21.6211 21.5976 22.0195 21.5859 22.4648 21.9609ZM48.2344 34.1132C50.7656 34.5703 52.9102 36.7617 53.332 39.3632C53.8594 42.5625 51.4453 45.8437 48.1406 46.4062C45.375 46.8867 42.5039 45.2578 41.3789 42.5625C40.1836 39.7031 41.4844 36.2343 44.2852 34.7578C45.5977 34.0664 46.8516 33.8672 48.2344 34.1132ZM4.20703 36.1523C4.64063 36.375 4.6875 36.5156 4.6875 37.7226C4.6875 38.6484 4.66406 38.7773 4.40625 39.0117C4.03125 39.3632 3.03516 39.4687 2.4375 39.2226C2.09766 39.082 1.98047 38.9531 1.88672 38.5898C1.59375 37.5468 1.83984 36.3164 2.36719 36.0937C2.78906 35.9297 3.84375 35.9531 4.20703 36.1523ZM57.5977 36.0937C58.1602 36.3047 58.418 37.5117 58.1133 38.5898C58.0195 38.9531 57.9023 39.082 57.5625 39.2226C56.9648 39.4687 55.9688 39.3632 55.5938 39.0117C55.3359 38.7656 55.3125 38.6484 55.3125 37.6757C55.3125 36.5742 55.3828 36.3632 55.8398 36.1172C56.1328 35.9531 57.1875 35.9414 57.5977 36.0937Z" fill="#393939"/>
<path d="M45.7969 36.1289C44.6367 36.5625 43.8516 37.2539 43.2656 38.3554C42.9727 38.9179 42.9492 39.0703 42.9492 40.2539C42.9492 41.4961 42.9609 41.5664 43.3477 42.2812C43.8047 43.125 44.3789 43.6875 45.2578 44.1445C45.832 44.4492 45.9844 44.4726 47.168 44.4726C48.4219 44.4726 48.4805 44.4609 49.2187 44.0508C50.1328 43.5468 50.8477 42.7265 51.2109 41.7539C51.5742 40.7929 51.5156 39.3633 51.0703 38.414C50.6719 37.5586 49.8633 36.75 49.0078 36.3515C48.4687 36.0937 48.1406 36.0351 47.2852 36.0117C46.6172 35.9882 46.0781 36.0351 45.7969 36.1289ZM48.5391 38.2617C49.2656 38.7773 49.5937 39.4922 49.5469 40.3945C49.4648 41.7422 48.4805 42.6562 47.1094 42.6562C46.5469 42.6562 46.3359 42.5976 45.8672 42.2695C45.0937 41.7539 44.7656 41.1562 44.7656 40.2422C44.7656 39.6211 44.8242 39.4453 45.1523 38.9531C45.6914 38.1562 46.3594 37.8164 47.3086 37.875C47.8828 37.9101 48.1406 37.9922 48.5391 38.2617Z" fill="#393939"/>
<path d="M5.50781 28.5937C5.36719 28.7343 5.27344 28.9804 5.27344 29.2383C5.27344 29.4961 5.36719 29.7422 5.50781 29.8828C5.73047 30.1054 5.89453 30.1172 11.4258 30.1172C16.957 30.1172 17.1211 30.1054 17.3438 29.8828C17.4844 29.7422 17.5781 29.4961 17.5781 29.2383C17.5781 28.9804 17.4844 28.7343 17.3438 28.5937C17.1211 28.3711 16.957 28.3593 11.4258 28.3593C5.89453 28.3593 5.73047 28.3711 5.50781 28.5937Z" fill="#393939"/>
<path d="M53.8359 30.2109C53.6953 30.2344 53.4844 30.3515 53.3672 30.4922C53.1797 30.6914 53.1445 30.9258 53.1445 32.0742C53.1445 33.3515 53.1562 33.4336 53.4258 33.6445C53.7891 33.9375 54.4219 33.9375 54.7266 33.6328C54.9375 33.4219 54.9609 33.2461 54.9609 32.0742C54.9609 30.3984 54.7617 30.0703 53.8359 30.2109Z" fill="#393939"/>
<path d="M11.2265 36.2461C9.42181 37.0078 8.48431 38.4961 8.57806 40.4648C8.64838 42.1054 9.38666 43.3008 10.8046 44.0742C11.5195 44.4609 11.5898 44.4726 12.832 44.4726C14.0156 44.4726 14.1679 44.4492 14.7421 44.1445C15.621 43.6875 16.1953 43.125 16.6523 42.2812C17.039 41.5664 17.0507 41.4961 17.0507 40.2539C17.0507 39.0703 17.0273 38.9179 16.7226 38.3437C16.2538 37.4648 15.7031 36.8906 14.8593 36.4336C14.1913 36.082 14.0038 36.0351 13.0078 36.0117C12.0468 35.9765 11.8007 36.0117 11.2265 36.2461ZM13.957 38.1211C14.2734 38.2851 14.6249 38.6133 14.8593 38.9531C15.6328 40.1015 15.246 41.6367 14.0038 42.3633C13.5351 42.6445 13.371 42.6797 12.7148 42.6328C11.789 42.5742 11.1093 42.1523 10.6874 41.3672C10.289 40.6172 10.3593 39.5859 10.8398 38.8828C11.5429 37.8867 12.8906 37.5586 13.957 38.1211Z" fill="#393939"/>
</g>
<defs>
<clipPath id="clip0_383_601">
<rect width="60" height="60" fill="white"/>
</clipPath>
</defs>
</svg>
