<svg width="60" height="60" viewBox="0 0 60 60" fill="none" xmlns="http://www.w3.org/2000/svg">
<g clip-path="url(#clip0_383_612)">
<path d="M6.71486 0.246086C5.88282 0.574211 4.89845 1.48827 4.48829 2.3203L4.16017 2.98827L4.12501 9.59765L4.08986 16.207L3.52736 16.8633C1.81642 18.8555 0.972669 20.4609 0.328138 22.8516C-0.0117059 24.1289 -0.0937371 27.2227 0.164075 28.6172C0.421888 30 0.855482 31.2539 1.50001 32.5195C2.06251 33.5977 3.09376 35.0625 3.73829 35.6719L4.10158 36.0234V40.8281C4.10158 46.0312 4.17189 46.9336 4.74611 48.668C6.14064 52.9687 9.82032 56.4375 14.1211 57.5273C15.5742 57.9023 16.8399 58.0078 19.5938 58.0078H22.1484L22.8867 58.7461C24.1289 60.0117 24.0234 60 30 60C34.8047 60 35.0625 59.9883 35.6836 59.7539C36.5274 59.4375 37.4766 58.5703 37.9102 57.6914L38.2617 57.0117V53.2031V49.3945L37.9219 48.6914C37.2891 47.4141 36.3984 46.7695 34.3242 46.1133C31.6289 45.2695 28.3711 45.2695 25.6641 46.125C23.6602 46.7578 22.6758 47.4609 22.0899 48.6914C21.9258 49.043 21.7969 49.3828 21.7969 49.4531C21.7969 49.5586 21.0586 49.582 19.0781 49.5469L16.3477 49.5117L15.5508 49.1367C13.9336 48.3633 12.7852 46.8633 12.5391 45.1641C12.3633 43.9336 12.3867 40.0781 12.5742 40.0781C12.6445 40.0781 13.2656 40.2187 13.9453 40.3828C15.7031 40.8164 17.25 40.8867 18.5039 40.5586C19.8867 40.2187 20.8359 39.6328 22.1602 38.3555L23.2852 37.2656H30H36.7149L37.8399 38.3555C39.1641 39.6328 40.1133 40.2187 41.4961 40.5586C42.9961 40.9453 44.2031 40.8398 47.5195 40.043C50.6484 39.2812 51.1289 39.1289 52.5703 38.4023C56.332 36.5156 59.0391 32.8711 59.8359 28.6289C60.1289 27.0703 60.0117 24.1172 59.6016 22.6406C59.1914 21.1875 58.7109 20.0391 58.0195 18.9141C56.0156 15.6797 52.875 13.4883 48.9844 12.6094C47.8711 12.3633 47.8008 12.3633 30.1524 12.3633H12.4336L12.3984 7.61718L12.3633 2.87109L12.0352 2.24999C11.625 1.46484 10.957 0.796867 10.1719 0.386711C9.31642 -0.0468826 7.62892 -0.128914 6.71486 0.246086ZM9.1172 2.35546C9.42189 2.5078 9.75001 2.80077 9.93751 3.08202L10.2539 3.56249V8.17968V12.7969L9.37501 13.0781C8.88282 13.2305 7.96876 13.6172 7.34767 13.9453L6.19923 14.5312L6.23439 9.10546L6.26954 3.6914L6.58595 3.15234C6.80861 2.77734 7.06642 2.53124 7.40626 2.35546C8.03907 2.03905 8.46095 2.03905 9.1172 2.35546ZM49.1367 14.9062C53.4258 16.0898 56.6133 19.418 57.6094 23.7305C57.9375 25.1719 57.8906 27.4922 57.5156 28.9453C56.625 32.2734 54.4102 35.0273 51.3867 36.5273C50.3906 37.0312 49.5117 37.3008 46.6406 37.9805C43.7578 38.6719 42.8203 38.7422 41.6953 38.332C40.8047 38.0273 40.207 37.5937 39.1172 36.4805L38.2149 35.5664L36.668 29.3555L35.1211 23.1445L34.2891 22.3125C33.0469 21.0703 31.9102 20.625 30 20.625C28.0899 20.625 26.9531 21.0703 25.7109 22.3125L24.8789 23.1445L23.332 29.3555L21.7852 35.5664L20.8828 36.4805C19.8164 37.5703 19.2656 37.9687 18.3984 38.2852C16.9688 38.8125 16.6992 38.7891 12.3047 37.7227C8.91798 36.8906 7.54689 36.2109 5.70704 34.4648C4.14845 32.9766 3.07033 31.1133 2.48439 28.9453C2.23829 27.9961 2.19142 27.5742 2.19142 26.1328C2.19142 24.6797 2.23829 24.2695 2.49611 23.2969C3.53908 19.3594 6.62111 16.1484 10.4063 15.0469C12.1289 14.543 11.9063 14.5547 30.3516 14.5664L47.9883 14.5898L49.1367 14.9062ZM31.8164 23.168C32.0742 23.2969 32.4609 23.5898 32.6836 23.8125C33.082 24.1875 33.1289 24.3398 34.4649 29.6836L35.8359 35.1562H30H24.1641L25.5 29.7891C26.2383 26.8477 26.9063 24.3047 27 24.1406C27.1992 23.7891 28.125 23.1328 28.6406 22.9687C28.8399 22.9102 29.5313 22.875 30.1758 22.8867C31.0899 22.9219 31.4531 22.9805 31.8164 23.168ZM8.43751 38.8711C8.91798 39.0703 9.53907 39.293 9.82032 39.3633L10.3125 39.5039V42.4687C10.3125 45.8555 10.4414 46.6523 11.2149 48.0352C11.8008 49.0898 13.1953 50.4609 14.1797 50.9297C15.6797 51.6562 15.9961 51.7148 18.9609 51.7734L21.6797 51.8203V53.8008V55.7812H19.0781C16.1484 55.7812 15.1055 55.6289 13.4063 54.9727C10.8633 53.9883 8.50782 51.7383 7.31251 49.1719C6.41017 47.2148 6.22267 45.7734 6.21095 40.9922V37.7461L6.89064 38.1328C7.25392 38.332 7.95704 38.6719 8.43751 38.8711ZM33.0938 48.0469C34.4766 48.4219 35.4258 48.8906 35.7539 49.3477C36.0352 49.7461 36.0352 49.7695 36.0703 52.9687C36.0938 54.7383 36.0703 56.3086 36.0352 56.4609C35.9297 56.8945 35.168 57.6445 34.7109 57.7734C34.1367 57.9258 25.8633 57.9258 25.2891 57.7734C24.832 57.6445 24.0703 56.8945 23.9649 56.4609C23.9297 56.3086 23.9063 54.7383 23.9297 52.9687C23.9649 49.7695 23.9649 49.7461 24.2461 49.3477C24.5859 48.8789 25.5703 48.3984 26.9063 48.0586C28.3125 47.707 28.2891 47.707 30.293 47.7539C31.7695 47.7773 32.3672 47.8477 33.0938 48.0469Z" fill="#393939"/>
<path d="M11.6602 16.7227C9.09377 17.2734 6.52736 19.125 5.44924 21.1992C5.01564 22.0547 5.70705 22.9688 6.64455 22.793C6.94924 22.7344 7.13674 22.5938 7.41799 22.1719C8.01564 21.293 9.25783 20.1211 10.0781 19.6641C11.3672 18.9492 12.2461 18.7383 14.2617 18.668C15.9492 18.5977 16.0547 18.5859 16.3125 18.3164C16.711 17.8945 16.6758 17.168 16.2539 16.8047C15.9375 16.5352 15.8555 16.5234 14.2031 16.5352C13.1485 16.5352 12.1641 16.6055 11.6602 16.7227Z" fill="#393939"/>
<path d="M18.9141 16.793C18.668 17.0156 18.5977 17.168 18.5977 17.5664C18.5977 18.2578 18.9727 18.6328 19.6523 18.6328C20.2148 18.6328 20.5664 18.375 20.6953 17.8711C20.9531 16.8164 19.7461 16.0781 18.9141 16.793Z" fill="#393939"/>
<path d="M28.8516 25.1016C28.6055 25.3711 27.8906 27.9141 27.8906 28.5352C27.8906 28.9453 28.4766 29.5313 28.8867 29.5313C29.4961 29.5313 29.8594 29.2266 30.0469 28.5586C30.7617 26.0742 30.8086 25.5352 30.3516 25.0781C30.0117 24.7383 29.1797 24.7617 28.8516 25.1016Z" fill="#393939"/>
<path d="M27.3984 31.125C26.7304 31.4766 26.6367 32.2735 27.1757 32.8242C27.7148 33.3633 28.5468 33.2344 28.8984 32.5664C29.1796 32.0039 28.957 31.336 28.4179 31.1016C27.9257 30.9024 27.7968 30.9024 27.3984 31.125Z" fill="#393939"/>
<path d="M28.5234 49.6875C27.832 49.9688 27.6796 50.9063 28.2304 51.457C28.5703 51.7969 28.582 51.7969 30 51.7969C31.4179 51.7969 31.4296 51.7969 31.7695 51.457C32.2031 51.0117 32.2265 50.4258 31.8281 49.957C31.5468 49.6406 31.5117 49.6289 30.1523 49.6055C29.3906 49.582 28.6523 49.6289 28.5234 49.6875Z" fill="#393939"/>
<path d="M28.1835 54.082C27.7734 54.4805 27.7851 55.1719 28.1953 55.5938C28.4999 55.8867 28.5468 55.8985 29.9882 55.8985C30.9609 55.8867 31.5234 55.8399 31.6523 55.7461C32.1796 55.3477 32.2617 54.5156 31.8163 54.082C31.5468 53.8008 31.4765 53.7891 29.9999 53.7891C28.5234 53.7891 28.4531 53.8008 28.1835 54.082Z" fill="#393939"/>
</g>
<defs>
<clipPath id="clip0_383_612">
<rect width="60" height="60" fill="white"/>
</clipPath>
</defs>
</svg>
