<svg width="20" height="21" viewBox="0 0 20 21" fill="none" xmlns="http://www.w3.org/2000/svg">
<path d="M17.8571 0.428467H2.14286C0.959821 0.428467 0 1.38829 0 2.57132V18.2856C0 19.4686 0.959821 20.4285 2.14286 20.4285H17.8571C19.0402 20.4285 20 19.4686 20 18.2856V2.57132C20 1.38829 19.0402 0.428467 17.8571 0.428467ZM15.6741 7.51775C15.683 7.64275 15.683 7.77222 15.683 7.89722C15.683 11.7678 12.7366 16.2276 7.35268 16.2276C5.69196 16.2276 4.15179 15.7454 2.85714 14.9151C3.09375 14.9419 3.32143 14.9508 3.5625 14.9508C4.93304 14.9508 6.19196 14.4865 7.19643 13.7008C5.91071 13.674 4.83036 12.8303 4.45982 11.6695C4.91071 11.7365 5.31696 11.7365 5.78125 11.616C4.44196 11.3436 3.4375 10.1651 3.4375 8.74097V8.70525C3.82589 8.924 4.28125 9.05793 4.75893 9.07579C4.35733 8.80866 4.02812 8.44627 3.80066 8.02095C3.5732 7.59563 3.45457 7.12061 3.45536 6.63829C3.45536 6.09365 3.59821 5.59365 3.85268 5.16061C5.29464 6.9374 7.45982 8.09811 9.88839 8.22311C9.47321 6.2365 10.9598 4.6249 12.7455 4.6249C13.5893 4.6249 14.3482 4.97757 14.8839 5.549C15.5446 5.424 16.1786 5.17847 16.7411 4.84365C16.5223 5.52222 16.0625 6.09365 15.4554 6.45525C16.0446 6.39275 16.6161 6.22757 17.1429 5.9999C16.7455 6.58472 16.2455 7.10257 15.6741 7.51775Z" fill="white"/>
</svg>
