<svg width="55" height="54" viewBox="0 0 55 54" fill="none" xmlns="http://www.w3.org/2000/svg">
<g clip-path="url(#clip0_383_686)">
<g filter="url(#filter0_f_383_686)">
<path d="M17.1175 42.5874L17.8191 42.9947C20.7656 44.7083 24.1441 45.6148 27.5895 45.6163H27.5967C38.1773 45.6163 46.7881 37.1801 46.7925 26.8111C46.7944 21.7865 44.7996 17.0614 41.1753 13.5071C39.3977 11.7542 37.283 10.3642 34.9535 9.41762C32.624 8.47102 30.126 7.98661 27.6042 7.99242C17.0155 7.99242 8.40432 16.4278 8.40055 26.7961C8.39534 30.3366 9.41276 33.8062 11.3352 36.8039L11.7919 37.5151L9.85233 44.4539L17.1175 42.5874ZM4.30701 49.8296L7.58379 38.1056C5.56291 34.6747 4.49974 30.7823 4.501 26.7945C4.50633 14.3195 14.8662 4.17047 27.597 4.17047C33.7748 4.17355 39.5735 6.52947 43.9345 10.806C48.2955 15.0826 50.6949 20.7671 50.6927 26.8127C50.687 39.2868 40.3256 49.4377 27.5967 49.4377H27.5866C23.7216 49.4361 19.9238 48.486 16.5503 46.6834L4.30701 49.8296Z" fill="#B3B3B3"/>
</g>
<path d="M4.06995 49.597L7.34673 37.8731C5.32237 34.4338 4.25904 30.5324 4.26394 26.562C4.26927 14.0869 14.6292 3.93793 27.3599 3.93793C33.5378 3.941 39.3364 6.29692 43.6974 10.5735C48.0584 14.8501 50.4578 20.5345 50.4556 26.5801C50.45 39.0543 40.0885 49.2051 27.3596 49.2051H27.3496C23.4846 49.2036 19.6867 48.2534 16.3132 46.4509L4.06995 49.597Z" fill="white"/>
<path d="M27.3669 7.75988C16.7782 7.75988 8.16699 16.1952 8.16323 26.5635C8.15801 30.104 9.17543 33.5737 11.0979 36.5713L11.5546 37.2828L9.61501 44.2217L16.8805 42.3549L17.5821 42.7621C20.5286 44.4758 23.9071 45.382 27.3525 45.3838H27.3597C37.9402 45.3838 46.5514 36.9475 46.5555 26.5786C46.5635 24.1072 46.0711 21.6588 45.1069 19.3752C44.1427 17.0915 42.7258 15.018 40.9383 13.2746C39.1607 11.5216 37.0459 10.1316 34.7163 9.18502C32.3868 8.23843 29.8888 7.75403 27.3669 7.75988Z" fill="url(#paint0_linear_383_686)"/>
<path fill-rule="evenodd" clip-rule="evenodd" d="M21.5875 17.1036C21.1549 16.162 20.6998 16.1429 20.2889 16.1266L19.1827 16.1134C18.7978 16.1134 18.1726 16.2549 17.644 16.8209C17.1154 17.3869 15.624 18.7548 15.624 21.537C15.624 24.3193 17.692 27.0077 17.9801 27.3854C18.2683 27.7632 21.9723 33.6547 27.8381 35.9214C32.7126 37.8051 33.7046 37.4305 34.763 37.3363C35.8215 37.2422 38.1773 35.9684 38.6579 34.6479C39.1385 33.3274 39.1388 32.196 38.9947 31.9595C38.8506 31.7229 38.4658 31.5824 37.8882 31.2994C37.3106 31.0164 34.4739 29.6485 33.945 29.4596C33.4161 29.2707 33.0316 29.1769 32.6464 29.7429C32.2613 30.3089 31.1567 31.5821 30.8198 31.9595C30.483 32.3369 30.1468 32.3843 29.5693 32.1016C28.9917 31.8189 27.1334 31.2215 24.9286 29.295C23.2131 27.7961 22.0552 25.945 21.718 25.3793C21.3809 24.8136 21.6823 24.5072 21.9717 24.2255C22.2306 23.972 22.5486 23.565 22.8377 23.235C23.1268 22.9049 23.2219 22.669 23.414 22.2922C23.6061 21.9154 23.5104 21.5844 23.366 21.3017C23.2216 21.019 22.1004 18.222 21.5875 17.1036Z" fill="white"/>
</g>
<defs>
<filter id="filter0_f_383_686" x="-2.75499" y="-2.89153" width="60.5097" height="59.7831" filterUnits="userSpaceOnUse" color-interpolation-filters="sRGB">
<feFlood flood-opacity="0" result="BackgroundImageFix"/>
<feBlend mode="normal" in="SourceGraphic" in2="BackgroundImageFix" result="shape"/>
<feGaussianBlur stdDeviation="3.531" result="effect1_foregroundBlur_383_686"/>
</filter>
<linearGradient id="paint0_linear_383_686" x1="26.9686" y1="10.0177" x2="27.1554" y2="42.1697" gradientUnits="userSpaceOnUse">
<stop stop-color="#57D163"/>
<stop offset="1" stop-color="#23B33A"/>
</linearGradient>
<clipPath id="clip0_383_686">
<rect width="55" height="54" fill="white"/>
</clipPath>
</defs>
</svg>
