<svg width="13" height="13" viewBox="0 0 13 13" fill="none" xmlns="http://www.w3.org/2000/svg">
<path d="M6.21999 0.900902C5.16108 0.900593 4.12142 1.18398 3.20912 1.72159C2.29683 2.2592 1.54523 3.0314 1.03247 3.95789C0.519719 4.88438 0.26454 5.93132 0.293473 6.98984C0.322406 8.04836 0.634394 9.0798 1.19699 9.9769L1.33799 10.2009L0.738993 12.3869L2.98199 11.7989L3.19799 11.9269C4.11108 12.4677 5.15278 12.753 6.21399 12.7529H6.21699C7.7888 12.7532 9.29633 12.129 10.408 11.0178C11.5196 9.90653 12.1442 8.39921 12.1445 6.8274C12.1448 5.2556 11.5206 3.74806 10.4094 2.63644C9.29812 1.52482 7.7908 0.900168 6.21899 0.899902L6.21999 0.900902ZM9.70399 9.3709C9.57292 9.58737 9.39846 9.77437 9.1916 9.92014C8.98473 10.0659 8.74994 10.1673 8.50199 10.2179C8.12764 10.2821 7.74347 10.2581 7.37999 10.1479C7.03529 10.0405 6.69649 9.91498 6.36499 9.7719C5.13472 9.15449 4.08609 8.22785 3.32199 7.0829C2.90517 6.55287 2.65215 5.91268 2.59399 5.2409C2.58919 4.96362 2.64219 4.68837 2.74963 4.4327C2.85706 4.17703 3.01657 3.94653 3.21799 3.7559C3.27752 3.688 3.35044 3.63313 3.43219 3.59476C3.51393 3.55638 3.60272 3.53532 3.69299 3.5329C3.81099 3.5329 3.92999 3.5329 4.03399 3.5389C4.14399 3.5439 4.28999 3.4969 4.43399 3.8449C4.58399 4.2009 4.93999 5.0779 4.98399 5.1669C5.01224 5.21356 5.0284 5.26653 5.03102 5.321C5.03364 5.37548 5.02263 5.42975 4.99899 5.4789C4.95413 5.58589 4.89419 5.6859 4.82099 5.7759C4.73099 5.8799 4.63399 6.0079 4.55399 6.0879C4.46399 6.1769 4.37199 6.2729 4.47499 6.4509C4.74252 6.90896 5.07648 7.32481 5.46599 7.6849C5.88863 8.06065 6.37356 8.3598 6.89899 8.5689C7.07699 8.6589 7.18099 8.6429 7.28499 8.5239C7.38899 8.4049 7.72999 8.0039 7.84899 7.8259C7.96799 7.6479 8.08599 7.6779 8.24899 7.7369C8.41199 7.7959 9.28899 8.2269 9.46699 8.3169C9.64499 8.4069 9.76399 8.4499 9.80799 8.5239C9.85676 8.81033 9.82061 9.10478 9.70399 9.3709Z" fill="white"/>
</svg>
